HIERARCHY
ROOT ui
{
	 OFFSET 0 0 0
	 CHANNELS 3 XPosition YPosition Z Position
	 EndSite
	 {
	 OFFSET 0 -1 0
	 }
}
ROOT li
{
	 OFFSET 0 0 0
	 CHANNELS 3 XPosition YPosition Z Position
	 EndSite
	 {
	 OFFSET 0 -1 0
	 }
}
ROOT ul
{
	 OFFSET 0 0 0
	 CHANNELS 3 XPosition YPosition Z Position
	 EndSite
	 {
	 OFFSET 0 -1 0
	 }
}
ROOT ll
{
	 OFFSET 0 0 0
	 CHANNELS 3 XPosition YPosition Z Position
	 EndSite
	 {
	 OFFSET 0 -1 0
	 }
}
ROOT tt
{
	 OFFSET 0 0 0
	 CHANNELS 3 XPosition YPosition Z Position
	 EndSite
	 {
	 OFFSET 0 -1 0
	 }
}
ROOT tb
{
	 OFFSET 0 0 0
	 CHANNELS 3 XPosition YPosition Z Position
	 EndSite
	 {
	 OFFSET 0 -1 0
	 }
}
ROOT td
{
	 OFFSET 0 0 0
	 CHANNELS 3 XPosition YPosition Z Position
	 EndSite
	 {
	 OFFSET 0 -1 0
	 }
}
ROOT v
{
	 OFFSET 0 0 0
	 CHANNELS 3 XPosition YPosition Z Position
	 EndSite
	 {
	 OFFSET 0 -1 0
	 }
}
ROOT bn
{
	 OFFSET 0 0 0
	 CHANNELS 3 XPosition YPosition Z Position
	 EndSite
	 {
	 OFFSET 0 -1 0
	 }
}
MOTION
Frames: 16
Frame Time: 0.002
-0.012265424728393554	-7.030979990959168E-4	0		0.5329256591796875	-2.50664404296875	0		-0.8421036376953125	0.3062066345214844	0		-0.6192870483398437	-2.532449951171875	0		1.6498575439453125	-0.9735490112304688	0		3.3547646484375	-0.2896573486328125	0		4.70753759765625	-0.05384632873535156	0		5.69740380859375	0.213694091796875	0		-0.15895025634765625	5.94949072265625	0		
-0.006159791946411133	0.0021013689041137697	0		0.5479007568359375	-2.509922607421875	0		-0.7979810791015625	0.3097684326171875	0		-0.5683494873046875	-2.540945556640625	0		1.656957763671875	-0.966809814453125	0		3.36278857421875	-0.296984375	0		4.6836259765625	-0.05398502349853516	0		5.6894814453125	0.21139959716796874	0		-0.1405873565673828	5.95921435546875	0		
0.008751002311706543	-0.0031641230583190918	0		0.5288284301757813	-2.500963134765625	0		-0.8559934692382812	0.31405355834960935	0		-0.5944083251953125	-2.529898193359375	0		1.6678504638671876	-0.9701026000976563	0		3.366854736328125	-0.27928485107421874	0		4.72067578125	-0.040560104370117187	0		5.71043505859375	0.21089918518066406	0		-0.13843980407714843	5.95904638671875	0		
0.004641264915466309	0.008703275680541992	0		0.546580078125	-2.497270751953125	0		-0.7901813354492188	0.31344415283203125	0		-0.5607373046875	-2.537284912109375	0		1.660644775390625	-0.9672666625976563	0		3.327578369140625	-0.28927236938476564	0		4.71338232421875	-0.05481542205810547	0		5.6842607421875	0.21274224853515625	0		-0.15350907897949218	5.94999853515625	0		
-0.004776682853698731	-0.0013929879665374755	0		0.5161371459960937	-2.500231689453125	0		-0.8295457763671875	0.3095892333984375	0		-0.561175048828125	-2.539429443359375	0		1.662269287109375	-0.9674932250976562	0		3.362215576171875	-0.29078872680664064	0		4.71009716796875	-0.04709284973144531	0		5.6959208984375	0.21232073974609375	0		-0.15068132019042968	5.94881982421875	0		
-0.00327946400642395	-0.0015681990385055542	0		0.543533203125	-2.50461083984375	0		-0.7910406494140625	0.3091685180664063	0		-0.5617648315429687	-2.54157421875	0		1.6637388916015625	-0.967716064453125	0		3.363704345703125	-0.29106011962890627	0		4.68560546875	-0.04620798492431641	0		5.68742431640625	0.21205540466308595	0		-0.1500068359375	5.94965625	0		
-0.056943286895751954	-0.0013400909900665283	0		0.5188314208984375	-2.50060888671875	0		-0.8636957397460937	0.30955618286132813	0		-0.5944674072265625	-2.537484619140625	0		1.6769527587890625	-0.9810208740234375	0		3.3531484375	-0.275235595703125	0		4.691876953125	-0.05553663635253906	0		5.69863330078125	0.1936586151123047	0		-0.13244166564941406	5.95936962890625	0		
0.0062693772315979	0.004037052154541016	0		0.5608958740234375	-2.507091552734375	0		-0.77946142578125	0.31679913330078124	0		-0.5533451538085937	-2.53593310546875	0		1.669216796875	-0.965166259765625	0		3.372143310546875	-0.29861849975585936	0		4.6921669921875	-0.03980917358398438	0		5.69892529296875	0.20935670471191406	0		-0.13112615966796876	5.95920263671875	0		
0.007278858184814453	0.0038714540004730225	0		0.5249317626953125	-2.495998046875	0		-0.7834742431640624	0.31268771362304687	0		-0.5544063720703125	-2.538071533203125	0		1.667182861328125	-0.968346435546875	0		3.36719775390625	-0.29181451416015625	0		4.71511962890625	-0.04823516082763672	0		5.69095458984375	0.21113150024414062	0		-0.14506562805175782	5.94815087890625	0		
0.0010891560316085816	-0.0022370100021362306	0		0.5766690063476563	-2.505543701171875	0		-0.7866432495117187	0.30857272338867187	0		-0.5556170043945312	-2.5402060546875	0		1.6680179443359375	-0.9685394287109375	0		3.368046142578125	-0.2920410766601563	0		4.72091650390625	-0.056521018981933596	0		5.69181298828125	0.2108590087890625	0		-0.1450864715576172	5.9490009765625	0		
0.0017937400341033936	-0.002391244888305664	0		0.5223609619140624	-2.50130224609375	0		-0.7859332275390625	0.3084322204589844	0		-0.518979736328125	-2.5436162109375	0		1.6687056884765625	-0.9687227172851562	0		3.364708984375	-0.29722430419921875	0		4.721623046875	-0.05675399780273437	0		5.69745458984375	0.2015689697265625	0		-0.12820481872558595	5.95873095703125	0		
0.0023534998893737793	-0.0025391809940338134	0		0.5508675537109375	-2.5036650390625	0		-0.8173975219726562	0.304532958984375	0		-0.5884046020507813	-2.536238525390625	0		1.6811544189453125	-0.9819841918945312	0		3.342257568359375	-0.29825271606445314	0		4.70617724609375	-0.05785163116455078	0		5.70295068359375	0.1922985076904297	0		-0.12557012939453124	5.9565703125	0		
-0.04115134048461914	0.007645770072937012	0		0.5392633056640626	-2.502723876953125	0		-0.8028851928710937	0.31629852294921873	0		-0.545988525390625	-2.532683349609375	0		1.690539306640625	-0.9852129516601562	0		3.363776611328125	-0.284592041015625	0		4.73259765625	-0.058242431640625	0		5.70743212890625	0.20005526733398438	0		-0.12507440185546875	5.95643115234375	0		
0.010104620933532715	0.0031349589824676513	0		0.5555531005859375	-2.4989814453125	0		-0.7755956420898438	0.31597372436523435	0		-0.5857345581054687	-2.533513671875	0		1.6789127197265625	-0.9722750244140625	0		3.332972412109375	-0.29653009033203126	0		4.71795263671875	-0.049312110900878905	0		5.703662109375	0.19189202880859374	0		-0.10774732971191406	5.95317333984375	0		
-0.047751201629638675	4.4077101349830627E-4	0		0.5516592407226563	-2.504081298828125	0		-0.7844872436523438	0.3079224548339844	0		-0.5156530151367188	-2.5421533203125	0		1.6819947509765625	-0.9824366455078125	0		3.36208203125	-0.3038992614746094	0		4.72305859375	-0.05751319885253906	0		5.68989599609375	0.20082136535644532	0		-0.15665591430664064	5.93641357421875	0		
0.003283118963241577	-0.0030559771060943604	0		0.551699462890625	-2.504203125	0		-0.821426025390625	0.30808526611328124	0		-0.5895887451171875	-2.538717529296875	0		1.6760980224609374	-0.9755220947265625	0		3.366182373046875	-0.2980710754394531	0		4.72311767578125	-0.05766337585449219	0		5.698955078125	0.200595947265625	0		-0.15754808044433594	5.93730419921875	0		
